<svg width="485" height="321" viewBox="0 0 485 321" fill="none" xmlns="http://www.w3.org/2000/svg">
<g clip-path="url(#clip0_553_678)">
<path d="M241 110V317.5" stroke="#C4C4C4" stroke-width="2" stroke-linecap="square" stroke-dasharray="11 11"/>
<path d="M135.5 167.5L238 319.5L347.5 167.5" stroke="#C4C4C4" stroke-width="2" stroke-linecap="square" stroke-dasharray="11 11"/>
<path d="M81 268.5L253 319L403 268.5" stroke="#C4C4C4" stroke-width="2" stroke-linecap="square" stroke-dasharray="11 11"/>
<mask id="path-4-inside-1_553_678" fill="white">
<path fill-rule="evenodd" clip-rule="evenodd" d="M84.3933 319.866H400.877C401.615 316.625 400.722 313.088 398.198 310.564L249.706 162.072C245.801 158.166 239.469 158.166 235.564 162.072L87.0715 310.564C84.5476 313.088 83.6549 316.625 84.3933 319.866Z"/>
</mask>
<path fill-rule="evenodd" clip-rule="evenodd" d="M84.3933 319.866H400.877C401.615 316.625 400.722 313.088 398.198 310.564L249.706 162.072C245.801 158.166 239.469 158.166 235.564 162.072L87.0715 310.564C84.5476 313.088 83.6549 316.625 84.3933 319.866Z" fill="#111111"/>
<path d="M84.3933 319.866L82.4432 320.31L82.7977 321.866H84.3933V319.866ZM400.877 319.866V321.866H402.472L402.827 320.31L400.877 319.866ZM398.198 310.564L396.784 311.978L396.784 311.978L398.198 310.564ZM249.706 162.072L251.12 160.657L251.12 160.657L249.706 162.072ZM235.564 162.072L236.978 163.486L235.564 162.072ZM87.0715 310.564L88.4857 311.978L88.4857 311.978L87.0715 310.564ZM84.3933 321.866H400.877V317.866H84.3933V321.866ZM396.784 311.978C398.802 313.996 399.519 316.823 398.927 319.422L402.827 320.31C403.711 316.427 402.643 312.18 399.613 309.15L396.784 311.978ZM248.292 163.486L396.784 311.978L399.613 309.15L251.12 160.657L248.292 163.486ZM236.978 163.486C240.102 160.362 245.168 160.362 248.292 163.486L251.12 160.657C246.434 155.971 238.836 155.971 234.15 160.657L236.978 163.486ZM88.4857 311.978L236.978 163.486L234.15 160.657L85.6573 309.15L88.4857 311.978ZM86.3433 319.422C85.7512 316.823 86.4682 313.996 88.4857 311.978L85.6573 309.15C82.6271 312.18 81.5586 316.427 82.4432 320.31L86.3433 319.422Z" fill="#EDEDED" mask="url(#path-4-inside-1_553_678)"/>
<path fill-rule="evenodd" clip-rule="evenodd" d="M439.849 288.825L440.848 288.863C440.949 286.255 441 283.633 441 281C441 278.367 440.949 275.745 440.848 273.136L439.849 273.175L438.85 273.214C438.95 275.797 439 278.392 439 281C439 283.608 438.95 286.203 438.85 288.786L439.849 288.825ZM438.638 257.594L439.631 257.478C439.018 252.243 438.203 247.071 437.193 241.968L436.212 242.162L435.231 242.356C436.231 247.407 437.038 252.528 437.645 257.711L438.638 257.594ZM432.575 226.961L433.538 226.69C432.113 221.628 430.494 216.648 428.689 211.757L427.751 212.104L426.813 212.45C428.599 217.291 430.202 222.221 431.613 227.232L432.575 226.961ZM421.764 197.666L422.672 197.247C420.471 192.48 418.087 187.814 415.531 183.259L414.659 183.749L413.787 184.238C416.318 188.748 418.677 193.366 420.856 198.085L421.764 197.666ZM406.482 170.433L407.313 169.877C404.396 165.52 401.312 161.283 398.071 157.177L397.286 157.797L396.501 158.417C399.71 162.482 402.763 166.676 405.651 170.99L406.482 170.433ZM387.132 145.919L387.866 145.24C384.31 141.395 380.605 137.69 376.76 134.134L376.081 134.868L375.402 135.603C379.209 139.123 382.877 142.791 386.397 146.598L387.132 145.919ZM364.203 124.714L364.823 123.929C360.717 120.688 356.48 117.604 352.123 114.687L351.567 115.518L351.01 116.349C355.324 119.237 359.518 122.29 363.583 125.499L364.203 124.714ZM338.251 107.341L338.741 106.469C334.186 103.913 329.52 101.529 324.753 99.3282L324.334 100.236L323.915 101.144C328.634 103.323 333.252 105.682 337.762 108.213L338.251 107.341ZM309.896 94.249L310.243 93.3109C305.352 91.5061 300.372 89.887 295.31 88.4621L295.039 89.4247L294.768 90.3873C299.779 91.7978 304.709 93.4006 309.55 95.1872L309.896 94.249ZM279.838 85.7878L280.032 84.8068C274.929 83.7973 269.757 82.9819 264.522 82.3686L264.406 83.3618L264.289 84.355C269.472 84.9622 274.593 85.7694 279.644 86.7688L279.838 85.7878ZM248.825 82.151L248.863 81.1518C246.255 81.0509 243.633 81 241 81C238.367 81 235.745 81.0509 233.136 81.1518L233.175 82.151L233.214 83.1503C235.797 83.0504 238.392 83 241 83C243.608 83 246.203 83.0504 248.786 83.1503L248.825 82.151ZM217.594 83.3618L217.478 82.3686C212.243 82.9819 207.071 83.7973 201.968 84.8068L202.162 85.7878L202.356 86.7688C207.407 85.7694 212.528 84.9622 217.711 84.355L217.594 83.3618ZM186.961 89.4247L186.69 88.4621C181.628 89.887 176.648 91.5061 171.757 93.3109L172.104 94.249L172.45 95.1872C177.291 93.4006 182.221 91.7978 187.232 90.3873L186.961 89.4247ZM157.666 100.236L157.247 99.3282C152.48 101.529 147.814 103.913 143.259 106.469L143.749 107.341L144.238 108.213C148.748 105.682 153.366 103.323 158.085 101.144L157.666 100.236ZM130.433 115.518L129.877 114.687C125.52 117.604 121.283 120.688 117.177 123.929L117.797 124.714L118.417 125.499C122.482 122.29 126.676 119.237 130.99 116.349L130.433 115.518ZM105.919 134.868L105.24 134.134C101.395 137.69 97.69 141.395 94.1342 145.24L94.8684 145.919L95.6025 146.598C99.123 142.791 102.791 139.123 106.598 135.603L105.919 134.868ZM84.7141 157.797L83.9292 157.177C80.6878 161.283 77.604 165.52 74.6869 169.877L75.5179 170.433L76.3488 170.99C79.2368 166.676 82.2899 162.482 85.499 158.417L84.7141 157.797ZM67.3411 183.749L66.469 183.259C63.9126 187.814 61.5293 192.48 59.3282 197.247L60.236 197.666L61.1439 198.085C63.323 193.366 65.6823 188.748 68.2131 184.238L67.3411 183.749ZM54.249 212.104L53.3109 211.757C51.5061 216.648 49.887 221.628 48.4621 226.69L49.4247 226.961L50.3873 227.232C51.7978 222.221 53.4006 217.291 55.1872 212.45L54.249 212.104ZM45.7878 242.162L44.8068 241.968C43.7973 247.071 42.9819 252.243 42.3686 257.478L43.3618 257.594L44.355 257.711C44.9622 252.528 45.7694 247.407 46.7688 242.356L45.7878 242.162ZM41 281C41 278.367 41.0509 275.745 41.1518 273.137L42.151 273.175L43.1503 273.214C43.0504 275.797 43 278.392 43 281C43 283.608 43.0504 286.203 43.1503 288.786L42.151 288.825L41.1518 288.864C41.0509 286.255 41 283.633 41 281ZM43.3618 304.406L42.3686 304.522C42.9819 309.757 43.7973 314.929 44.8068 320.032L45.7878 319.838L46.7688 319.644C45.7694 314.593 44.9622 309.472 44.355 304.289L43.3618 304.406ZM436.212 319.838L437.193 320.032C438.203 314.929 439.018 309.757 439.631 304.522L438.638 304.406L437.645 304.289C437.038 309.472 436.231 314.593 435.231 319.644L436.212 319.838Z" fill="white"/>
<g filter="url(#filter0_d_553_678)">
<g filter="url(#filter1_iiiii_553_678)">
<path d="M236 27.8868C239.094 26.1004 242.906 26.1004 246 27.8868L274.971 44.6132C278.065 46.3996 279.971 49.7008 279.971 53.2735V86.7265C279.971 90.2992 278.065 93.6004 274.971 95.3868L246 112.113C242.906 113.9 239.094 113.9 236 112.113L207.029 95.3868C203.935 93.6004 202.029 90.2992 202.029 86.7265V53.2735C202.029 49.7008 203.935 46.3996 207.029 44.6132L236 27.8868Z" fill="white"/>
</g>
<path d="M245.75 28.3198L274.721 45.0463C277.66 46.7433 279.471 49.8795 279.471 53.2735V86.7265C279.471 90.1205 277.66 93.2567 274.721 94.9537L245.75 111.68C242.811 113.377 239.189 113.377 236.25 111.68L207.279 94.9537C204.34 93.2567 202.529 90.1205 202.529 86.7265V53.2735C202.529 49.8795 204.34 46.7433 207.279 45.0463L236.25 28.3198C239.189 26.6228 242.811 26.6228 245.75 28.3198Z" stroke="black"/>
<mask id="path-9-inside-2_553_678" fill="white">
<path fill-rule="evenodd" clip-rule="evenodd" d="M278.806 48.5002L241 70.329V113.3C242.716 113.294 244.431 112.848 245.969 111.96L274.938 95.2338C278.032 93.4475 279.938 90.1463 279.938 86.5737V53.1204C279.938 51.4835 279.537 49.9036 278.806 48.5002Z"/>
</mask>
<path fill-rule="evenodd" clip-rule="evenodd" d="M278.806 48.5002L241 70.329V113.3C242.716 113.294 244.431 112.848 245.969 111.96L274.938 95.2338C278.032 93.4475 279.938 90.1463 279.938 86.5737V53.1204C279.938 51.4835 279.537 49.9036 278.806 48.5002Z" fill="#DADADA"/>
<path d="M278.806 48.5002L278.306 47.6342L279.211 47.1121L279.693 48.0382L278.806 48.5002ZM241 70.329H240V69.7516L240.5 69.463L241 70.329ZM241 113.3L241.003 114.3L240 114.303V113.3H241ZM245.969 111.96L246.469 112.826L246.469 112.826L245.969 111.96ZM274.938 95.2338L274.438 94.3678L274.438 94.3678L274.938 95.2338ZM279.306 49.3662L241.5 71.195L240.5 69.463L278.306 47.6342L279.306 49.3662ZM242 70.329V113.3H240V70.329H242ZM240.997 112.3C242.542 112.295 244.085 111.893 245.469 111.094L246.469 112.826C244.777 113.803 242.891 114.294 241.003 114.3L240.997 112.3ZM245.469 111.094L274.438 94.3678L275.438 96.0998L246.469 112.826L245.469 111.094ZM274.438 94.3678C277.222 92.7601 278.938 89.789 278.938 86.5737H280.938C280.938 90.5035 278.841 94.1348 275.438 96.0998L274.438 94.3678ZM278.938 86.5737V53.1204H280.938V86.5737H278.938ZM278.938 53.1204C278.938 51.6471 278.577 50.2254 277.919 48.9623L279.693 48.0382C280.497 49.5818 280.938 51.3199 280.938 53.1204H278.938Z" fill="black" mask="url(#path-9-inside-2_553_678)"/>
<mask id="path-11-inside-3_553_678" fill="white">
<path fill-rule="evenodd" clip-rule="evenodd" d="M240.942 113.287C239.225 113.282 237.509 112.835 235.971 111.947L207 95.2206C203.906 93.4342 202 90.133 202 86.5603V53.1073C202 51.4754 202.398 49.9001 203.125 48.5L240.942 70.3338V113.287Z"/>
</mask>
<path fill-rule="evenodd" clip-rule="evenodd" d="M240.942 113.287C239.225 113.282 237.509 112.835 235.971 111.947L207 95.2206C203.906 93.4342 202 90.133 202 86.5603V53.1073C202 51.4754 202.398 49.9001 203.125 48.5L240.942 70.3338V113.287Z" fill="#EBE9E9"/>
<path d="M240.942 113.287L240.939 114.287L241.942 114.29V113.287H240.942ZM235.971 111.947L236.471 111.081L236.471 111.081L235.971 111.947ZM207 95.2206L206.5 96.0866L206.5 96.0866L207 95.2206ZM203.125 48.5L203.625 47.634L202.719 47.1111L202.237 48.0392L203.125 48.5ZM240.942 70.3338H241.942V69.7565L241.442 69.4678L240.942 70.3338ZM240.945 112.287C239.4 112.282 237.856 111.88 236.471 111.081L235.471 112.813C237.163 113.79 239.051 114.281 240.939 114.287L240.945 112.287ZM236.471 111.081L207.5 94.3545L206.5 96.0866L235.471 112.813L236.471 111.081ZM207.5 94.3545C204.715 92.7468 203 89.7757 203 86.5603H201C201 90.4902 203.097 94.1216 206.5 96.0866L207.5 94.3545ZM203 86.5603V53.1073H201V86.5603H203ZM203 53.1073C203 51.6385 203.358 50.221 204.012 48.9608L202.237 48.0392C201.438 49.5793 201 51.3123 201 53.1073H203ZM202.625 49.366L240.442 71.1998L241.442 69.4678L203.625 47.634L202.625 49.366ZM239.942 70.3338V113.287H241.942V70.3338H239.942Z" fill="black" mask="url(#path-11-inside-3_553_678)"/>
</g>
<g filter="url(#filter2_d_553_678)">
<g filter="url(#filter3_iiiii_553_678)">
<path d="M362 92.8868C365.094 91.1004 368.906 91.1004 372 92.8868L400.971 109.613C404.065 111.4 405.971 114.701 405.971 118.274V151.726C405.971 155.299 404.065 158.6 400.971 160.387L372 177.113C368.906 178.9 365.094 178.9 362 177.113L333.029 160.387C329.935 158.6 328.029 155.299 328.029 151.726V118.274C328.029 114.701 329.935 111.4 333.029 109.613L362 92.8868Z" fill="white"/>
</g>
<path d="M371.75 93.3198L400.721 110.046C403.66 111.743 405.471 114.879 405.471 118.274V151.726C405.471 155.121 403.66 158.257 400.721 159.954L371.75 176.68C368.811 178.377 365.189 178.377 362.25 176.68L333.279 159.954C330.34 158.257 328.529 155.121 328.529 151.726V118.274C328.529 114.879 330.34 111.743 333.279 110.046L362.25 93.3198C365.189 91.6228 368.811 91.6228 371.75 93.3198Z" stroke="black"/>
<mask id="path-15-inside-4_553_678" fill="white">
<path fill-rule="evenodd" clip-rule="evenodd" d="M404.806 113.5L367 135.329V178.3C368.716 178.294 370.431 177.848 371.969 176.96L400.938 160.234C404.032 158.447 405.938 155.146 405.938 151.574V118.12C405.938 116.483 405.537 114.904 404.806 113.5Z"/>
</mask>
<path fill-rule="evenodd" clip-rule="evenodd" d="M404.806 113.5L367 135.329V178.3C368.716 178.294 370.431 177.848 371.969 176.96L400.938 160.234C404.032 158.447 405.938 155.146 405.938 151.574V118.12C405.938 116.483 405.537 114.904 404.806 113.5Z" fill="#DADADA"/>
<path d="M404.806 113.5L404.306 112.634L405.211 112.112L405.693 113.038L404.806 113.5ZM367 135.329H366V134.752L366.5 134.463L367 135.329ZM367 178.3L367.003 179.3L366 179.303V178.3H367ZM371.969 176.96L372.469 177.826L372.469 177.826L371.969 176.96ZM400.938 160.234L400.438 159.368L400.438 159.368L400.938 160.234ZM405.306 114.366L367.5 136.195L366.5 134.463L404.306 112.634L405.306 114.366ZM368 135.329V178.3H366V135.329H368ZM366.997 177.3C368.542 177.295 370.085 176.893 371.469 176.094L372.469 177.826C370.777 178.803 368.891 179.294 367.003 179.3L366.997 177.3ZM371.469 176.094L400.438 159.368L401.438 161.1L372.469 177.826L371.469 176.094ZM400.438 159.368C403.222 157.76 404.938 154.789 404.938 151.574H406.938C406.938 155.504 404.841 159.135 401.438 161.1L400.438 159.368ZM404.938 151.574V118.12H406.938V151.574H404.938ZM404.938 118.12C404.938 116.647 404.577 115.225 403.919 113.962L405.693 113.038C406.497 114.582 406.938 116.32 406.938 118.12H404.938Z" fill="black" mask="url(#path-15-inside-4_553_678)"/>
<mask id="path-17-inside-5_553_678" fill="white">
<path fill-rule="evenodd" clip-rule="evenodd" d="M366.942 178.287C365.225 178.282 363.509 177.835 361.971 176.947L333 160.221C329.906 158.434 328 155.133 328 151.56V118.107C328 116.475 328.398 114.9 329.125 113.5L366.942 135.334V178.287Z"/>
</mask>
<path fill-rule="evenodd" clip-rule="evenodd" d="M366.942 178.287C365.225 178.282 363.509 177.835 361.971 176.947L333 160.221C329.906 158.434 328 155.133 328 151.56V118.107C328 116.475 328.398 114.9 329.125 113.5L366.942 135.334V178.287Z" fill="#EBE9E9"/>
<path d="M366.942 178.287L366.939 179.287L367.942 179.29V178.287H366.942ZM361.971 176.947L362.471 176.081L361.971 176.947ZM333 160.221L332.5 161.087L332.5 161.087L333 160.221ZM329.125 113.5L329.625 112.634L328.719 112.111L328.237 113.039L329.125 113.5ZM366.942 135.334H367.942V134.756L367.442 134.468L366.942 135.334ZM366.945 177.287C365.4 177.282 363.856 176.88 362.471 176.081L361.471 177.813C363.163 178.79 365.051 179.281 366.939 179.287L366.945 177.287ZM362.471 176.081L333.5 159.355L332.5 161.087L361.471 177.813L362.471 176.081ZM333.5 159.355C330.715 157.747 329 154.776 329 151.56H327C327 155.49 329.097 159.122 332.5 161.087L333.5 159.355ZM329 151.56V118.107H327V151.56H329ZM329 118.107C329 116.639 329.358 115.221 330.012 113.961L328.237 113.039C327.438 114.579 327 116.312 327 118.107H329ZM328.625 114.366L366.442 136.2L367.442 134.468L329.625 112.634L328.625 114.366ZM365.942 135.334V178.287H367.942V135.334H365.942Z" fill="black" mask="url(#path-17-inside-5_553_678)"/>
</g>
<g filter="url(#filter4_d_553_678)">
<g filter="url(#filter5_iiiii_553_678)">
<path d="M435 204.887C438.094 203.1 441.906 203.1 445 204.887L473.971 221.613C477.065 223.4 478.971 226.701 478.971 230.274V263.726C478.971 267.299 477.065 270.6 473.971 272.387L445 289.113C441.906 290.9 438.094 290.9 435 289.113L406.029 272.387C402.935 270.6 401.029 267.299 401.029 263.726V230.274C401.029 226.701 402.935 223.4 406.029 221.613L435 204.887Z" fill="white"/>
</g>
<path d="M444.75 205.32L473.721 222.046C476.66 223.743 478.471 226.879 478.471 230.274V263.726C478.471 267.121 476.66 270.257 473.721 271.954L444.75 288.68C441.811 290.377 438.189 290.377 435.25 288.68L406.279 271.954C403.34 270.257 401.529 267.121 401.529 263.726V230.274C401.529 226.879 403.34 223.743 406.279 222.046L435.25 205.32C438.189 203.623 441.811 203.623 444.75 205.32Z" stroke="black"/>
<mask id="path-21-inside-6_553_678" fill="white">
<path fill-rule="evenodd" clip-rule="evenodd" d="M477.806 225.5L440 247.329V290.3C441.716 290.294 443.431 289.848 444.969 288.96L473.938 272.234C477.032 270.447 478.938 267.146 478.938 263.574V230.12C478.938 228.483 478.537 226.904 477.806 225.5Z"/>
</mask>
<path fill-rule="evenodd" clip-rule="evenodd" d="M477.806 225.5L440 247.329V290.3C441.716 290.294 443.431 289.848 444.969 288.96L473.938 272.234C477.032 270.447 478.938 267.146 478.938 263.574V230.12C478.938 228.483 478.537 226.904 477.806 225.5Z" fill="#DADADA"/>
<path d="M477.806 225.5L477.306 224.634L478.211 224.112L478.693 225.038L477.806 225.5ZM440 247.329H439V246.752L439.5 246.463L440 247.329ZM440 290.3L440.003 291.3L439 291.303V290.3H440ZM444.969 288.96L445.469 289.826L445.469 289.826L444.969 288.96ZM473.938 272.234L473.438 271.368L473.438 271.368L473.938 272.234ZM478.306 226.366L440.5 248.195L439.5 246.463L477.306 224.634L478.306 226.366ZM441 247.329V290.3H439V247.329H441ZM439.997 289.3C441.542 289.295 443.085 288.893 444.469 288.094L445.469 289.826C443.777 290.803 441.891 291.294 440.003 291.3L439.997 289.3ZM444.469 288.094L473.438 271.368L474.438 273.1L445.469 289.826L444.469 288.094ZM473.438 271.368C476.222 269.76 477.938 266.789 477.938 263.574H479.938C479.938 267.504 477.841 271.135 474.438 273.1L473.438 271.368ZM477.938 263.574V230.12H479.938V263.574H477.938ZM477.938 230.12C477.938 228.647 477.577 227.225 476.919 225.962L478.693 225.038C479.497 226.582 479.938 228.32 479.938 230.12H477.938Z" fill="black" mask="url(#path-21-inside-6_553_678)"/>
<mask id="path-23-inside-7_553_678" fill="white">
<path fill-rule="evenodd" clip-rule="evenodd" d="M439.942 290.287C438.225 290.282 436.509 289.835 434.971 288.947L406 272.221C402.906 270.434 401 267.133 401 263.56V230.107C401 228.475 401.398 226.9 402.125 225.5L439.942 247.334V290.287Z"/>
</mask>
<path fill-rule="evenodd" clip-rule="evenodd" d="M439.942 290.287C438.225 290.282 436.509 289.835 434.971 288.947L406 272.221C402.906 270.434 401 267.133 401 263.56V230.107C401 228.475 401.398 226.9 402.125 225.5L439.942 247.334V290.287Z" fill="#EBE9E9"/>
<path d="M439.942 290.287L439.939 291.287L440.942 291.29V290.287H439.942ZM434.971 288.947L435.471 288.081L435.471 288.081L434.971 288.947ZM406 272.221L405.5 273.087L405.5 273.087L406 272.221ZM402.125 225.5L402.625 224.634L401.719 224.111L401.237 225.039L402.125 225.5ZM439.942 247.334H440.942V246.756L440.442 246.468L439.942 247.334ZM439.945 289.287C438.4 289.282 436.856 288.88 435.471 288.081L434.471 289.813C436.163 290.79 438.051 291.281 439.939 291.287L439.945 289.287ZM435.471 288.081L406.5 271.355L405.5 273.087L434.471 289.813L435.471 288.081ZM406.5 271.355C403.715 269.747 402 266.776 402 263.56H400C400 267.49 402.097 271.122 405.5 273.087L406.5 271.355ZM402 263.56V230.107H400V263.56H402ZM402 230.107C402 228.639 402.358 227.221 403.012 225.961L401.237 225.039C400.438 226.579 400 228.312 400 230.107H402ZM401.625 226.366L439.442 248.2L440.442 246.468L402.625 224.634L401.625 226.366ZM438.942 247.334V290.287H440.942V247.334H438.942Z" fill="black" mask="url(#path-23-inside-7_553_678)"/>
</g>
<g filter="url(#filter6_d_553_678)">
<g filter="url(#filter7_iiiii_553_678)">
<path d="M110 92.8868C113.094 91.1004 116.906 91.1004 120 92.8868L148.971 109.613C152.065 111.4 153.971 114.701 153.971 118.274V151.726C153.971 155.299 152.065 158.6 148.971 160.387L120 177.113C116.906 178.9 113.094 178.9 110 177.113L81.0289 160.387C77.9348 158.6 76.0289 155.299 76.0289 151.726V118.274C76.0289 114.701 77.9348 111.4 81.0289 109.613L110 92.8868Z" fill="white"/>
</g>
<path d="M119.75 93.3198L148.721 110.046C151.66 111.743 153.471 114.879 153.471 118.274V151.726C153.471 155.121 151.66 158.257 148.721 159.954L119.75 176.68C116.811 178.377 113.189 178.377 110.25 176.68L81.2789 159.954C78.3395 158.257 76.5289 155.121 76.5289 151.726V118.274C76.5289 114.879 78.3395 111.743 81.2789 110.046L110.25 93.3198C113.189 91.6228 116.811 91.6228 119.75 93.3198Z" stroke="black"/>
<mask id="path-27-inside-8_553_678" fill="white">
<path fill-rule="evenodd" clip-rule="evenodd" d="M152.806 113.5L115 135.329V178.3C116.716 178.294 118.431 177.848 119.969 176.96L148.938 160.234C152.032 158.447 153.938 155.146 153.938 151.574V118.12C153.938 116.483 153.537 114.904 152.806 113.5Z"/>
</mask>
<path fill-rule="evenodd" clip-rule="evenodd" d="M152.806 113.5L115 135.329V178.3C116.716 178.294 118.431 177.848 119.969 176.96L148.938 160.234C152.032 158.447 153.938 155.146 153.938 151.574V118.12C153.938 116.483 153.537 114.904 152.806 113.5Z" fill="#DADADA"/>
<path d="M152.806 113.5L152.306 112.634L153.211 112.112L153.693 113.038L152.806 113.5ZM115 135.329H114V134.752L114.5 134.463L115 135.329ZM115 178.3L115.003 179.3L114 179.303V178.3H115ZM119.969 176.96L120.469 177.826L120.469 177.826L119.969 176.96ZM148.938 160.234L148.438 159.368L148.438 159.368L148.938 160.234ZM153.306 114.366L115.5 136.195L114.5 134.463L152.306 112.634L153.306 114.366ZM116 135.329V178.3H114V135.329H116ZM114.997 177.3C116.542 177.295 118.085 176.893 119.469 176.094L120.469 177.826C118.777 178.803 116.891 179.294 115.003 179.3L114.997 177.3ZM119.469 176.094L148.438 159.368L149.438 161.1L120.469 177.826L119.469 176.094ZM148.438 159.368C151.222 157.76 152.938 154.789 152.938 151.574H154.938C154.938 155.504 152.841 159.135 149.438 161.1L148.438 159.368ZM152.938 151.574V118.12H154.938V151.574H152.938ZM152.938 118.12C152.938 116.647 152.577 115.225 151.919 113.962L153.693 113.038C154.497 114.582 154.938 116.32 154.938 118.12H152.938Z" fill="black" mask="url(#path-27-inside-8_553_678)"/>
<mask id="path-29-inside-9_553_678" fill="white">
<path fill-rule="evenodd" clip-rule="evenodd" d="M114.942 178.287C113.225 178.282 111.509 177.835 109.971 176.947L81 160.221C77.906 158.434 76 155.133 76 151.56V118.107C76 116.475 76.3977 114.9 77.1246 113.5L114.942 135.334V178.287Z"/>
</mask>
<path fill-rule="evenodd" clip-rule="evenodd" d="M114.942 178.287C113.225 178.282 111.509 177.835 109.971 176.947L81 160.221C77.906 158.434 76 155.133 76 151.56V118.107C76 116.475 76.3977 114.9 77.1246 113.5L114.942 135.334V178.287Z" fill="#EBE9E9"/>
<path d="M114.942 178.287L114.939 179.287L115.942 179.29V178.287H114.942ZM109.971 176.947L110.471 176.081L110.471 176.081L109.971 176.947ZM81 160.221L80.5 161.087L80.5 161.087L81 160.221ZM77.1246 113.5L77.6246 112.634L76.7189 112.111L76.2371 113.039L77.1246 113.5ZM114.942 135.334H115.942V134.756L115.442 134.468L114.942 135.334ZM114.945 177.287C113.4 177.282 111.856 176.88 110.471 176.081L109.471 177.813C111.163 178.79 113.051 179.281 114.939 179.287L114.945 177.287ZM110.471 176.081L81.5 159.355L80.5 161.087L109.471 177.813L110.471 176.081ZM81.5 159.355C78.7154 157.747 77 154.776 77 151.56H75C75 155.49 77.0966 159.122 80.5 161.087L81.5 159.355ZM77 151.56V118.107H75V151.56H77ZM77 118.107C77 116.639 77.3578 115.221 78.0121 113.961L76.2371 113.039C75.4375 114.579 75 116.312 75 118.107H77ZM76.6246 114.366L114.442 136.2L115.442 134.468L77.6246 112.634L76.6246 114.366ZM113.942 135.334V178.287H115.942V135.334H113.942Z" fill="black" mask="url(#path-29-inside-9_553_678)"/>
</g>
<g filter="url(#filter8_d_553_678)">
<g filter="url(#filter9_iiiii_553_678)">
<path d="M40 203.887C43.094 202.1 46.906 202.1 50 203.887L78.9711 220.613C82.0652 222.4 83.9711 225.701 83.9711 229.274V262.726C83.9711 266.299 82.0652 269.6 78.9711 271.387L50 288.113C46.906 289.9 43.094 289.9 40 288.113L11.0289 271.387C7.93485 269.6 6.02886 266.299 6.02886 262.726V229.274C6.02886 225.701 7.93485 222.4 11.0289 220.613L40 203.887Z" fill="white"/>
</g>
<path d="M49.75 204.32L78.7211 221.046C81.6605 222.743 83.4711 225.879 83.4711 229.274V262.726C83.4711 266.121 81.6605 269.257 78.7211 270.954L49.75 287.68C46.8107 289.377 43.1893 289.377 40.25 287.68L11.2789 270.954C8.33955 269.257 6.52886 266.121 6.52886 262.726V229.274C6.52886 225.879 8.33955 222.743 11.2789 221.046L40.25 204.32C43.1893 202.623 46.8107 202.623 49.75 204.32Z" stroke="black"/>
<mask id="path-33-inside-10_553_678" fill="white">
<path fill-rule="evenodd" clip-rule="evenodd" d="M82.8063 224.5L45 246.329L45 289.3C46.7161 289.294 48.4312 288.848 49.9689 287.96L78.9377 271.234C82.0316 269.447 83.9375 266.146 83.9375 262.574V229.12C83.9375 227.483 83.5374 225.904 82.8063 224.5Z"/>
</mask>
<path fill-rule="evenodd" clip-rule="evenodd" d="M82.8063 224.5L45 246.329L45 289.3C46.7161 289.294 48.4312 288.848 49.9689 287.96L78.9377 271.234C82.0316 269.447 83.9375 266.146 83.9375 262.574V229.12C83.9375 227.483 83.5374 225.904 82.8063 224.5Z" fill="#DADADA"/>
<path d="M82.8063 224.5L82.3062 223.634L83.2106 223.112L83.6931 224.038L82.8063 224.5ZM45 246.329H44V245.752L44.5 245.463L45 246.329ZM45 289.3L45.0031 290.3L44 290.303V289.3H45ZM49.9689 287.96L50.4689 288.826L50.4689 288.826L49.9689 287.96ZM78.9377 271.234L78.4377 270.368L78.4377 270.368L78.9377 271.234ZM83.3063 225.366L45.5 247.195L44.5 245.463L82.3062 223.634L83.3063 225.366ZM46 246.329L46 289.3H44L44 246.329H46ZM44.9969 288.3C46.5416 288.295 48.0849 287.893 49.4689 287.094L50.4689 288.826C48.7775 289.803 46.8907 290.294 45.0031 290.3L44.9969 288.3ZM49.4689 287.094L78.4377 270.368L79.4378 272.1L50.4689 288.826L49.4689 287.094ZM78.4377 270.368C81.2222 268.76 82.9375 265.789 82.9375 262.574H84.9375C84.9375 266.504 82.841 270.135 79.4378 272.1L78.4377 270.368ZM82.9375 262.574V229.12H84.9375V262.574H82.9375ZM82.9375 229.12C82.9375 227.647 82.5775 226.225 81.9194 224.962L83.6931 224.038C84.4973 225.582 84.9375 227.32 84.9375 229.12H82.9375Z" fill="black" mask="url(#path-33-inside-10_553_678)"/>
<mask id="path-35-inside-11_553_678" fill="white">
<path fill-rule="evenodd" clip-rule="evenodd" d="M44.9418 289.287C43.2251 289.282 41.5094 288.835 39.9711 287.947L11 271.221C7.90599 269.434 6 266.133 6 262.56V229.107C6 227.475 6.39767 225.9 7.12459 224.5L44.9418 246.334V289.287Z"/>
</mask>
<path fill-rule="evenodd" clip-rule="evenodd" d="M44.9418 289.287C43.2251 289.282 41.5094 288.835 39.9711 287.947L11 271.221C7.90599 269.434 6 266.133 6 262.56V229.107C6 227.475 6.39767 225.9 7.12459 224.5L44.9418 246.334V289.287Z" fill="#EBE9E9"/>
<path d="M44.9418 289.287L44.9389 290.287L45.9418 290.29V289.287H44.9418ZM39.9711 287.947L40.4711 287.081L40.4711 287.081L39.9711 287.947ZM11 271.221L10.5 272.087L10.5 272.087L11 271.221ZM7.12459 224.5L7.62459 223.634L6.71893 223.111L6.23707 224.039L7.12459 224.5ZM44.9418 246.334H45.9418V245.756L45.4418 245.468L44.9418 246.334ZM44.9448 288.287C43.3995 288.282 41.8556 287.88 40.4711 287.081L39.4711 288.813C41.1632 289.79 43.0507 290.281 44.9389 290.287L44.9448 288.287ZM40.4711 287.081L11.5 270.355L10.5 272.087L39.4711 288.813L40.4711 287.081ZM11.5 270.355C8.71539 268.747 7 265.776 7 262.56H5C5 266.49 7.09659 270.122 10.5 272.087L11.5 270.355ZM7 262.56V229.107H5V262.56H7ZM7 229.107C7 227.639 7.35783 226.221 8.0121 224.961L6.23707 224.039C5.43751 225.579 5 227.312 5 229.107H7ZM6.62459 225.366L44.4418 247.2L45.4418 245.468L7.62459 223.634L6.62459 225.366ZM43.9418 246.334V289.287H45.9418V246.334H43.9418Z" fill="black" mask="url(#path-35-inside-11_553_678)"/>
</g>
<path d="M197 237.5C196.724 237.5 196.5 237.724 196.5 238C196.5 238.276 196.724 238.5 197 238.5V237.5ZM289.73 238.5H290.23V237.5H289.73V238.5ZM197 238.5H289.73V237.5H197V238.5Z" fill="white" fill-opacity="0.15"/>
<rect x="281.694" y="236" width="8.65484" height="4" fill="#353535"/>
<path d="M209 220.5C208.724 220.5 208.5 220.724 208.5 221C208.5 221.276 208.724 221.5 209 221.5V220.5ZM275.903 221.5H276.403V220.5H275.903V221.5ZM209 221.5H275.903V220.5H209V221.5Z" fill="white" fill-opacity="0.15"/>
<rect x="270.104" y="219" width="6.24425" height="4" fill="#353535"/>
<path d="M180 255.5C179.724 255.5 179.5 255.724 179.5 256C179.5 256.276 179.724 256.5 180 256.5V255.5ZM304.342 256.5H304.842V255.5H304.342V256.5ZM180 256.5H304.342V255.5H180V256.5Z" fill="white" fill-opacity="0.15"/>
<rect x="294.395" y="254" width="11.6053" height="4" fill="#353535"/>
<path d="M158 276.5C157.724 276.5 157.5 276.724 157.5 277C157.5 277.276 157.724 277.5 158 277.5V276.5ZM323.789 277.5H324.289V276.5H323.789V277.5ZM158 277.5H323.789V276.5H158V277.5Z" fill="white" fill-opacity="0.15"/>
<rect x="310.526" y="275" width="15.4737" height="4" fill="#353535"/>
<path d="M140 297.5C139.724 297.5 139.5 297.724 139.5 298C139.5 298.276 139.724 298.5 140 298.5V297.5ZM340.329 298.5H340.829V297.5H340.329V298.5ZM140 298.5H340.329V297.5H140V298.5Z" fill="white" fill-opacity="0.15"/>
<rect x="324.303" y="296" width="18.6973" height="4" fill="#353535"/>
<rect x="149" y="288" width="7" height="24" fill="#DD3C3C"/>
<rect x="159" y="269" width="7" height="24" fill="#DD3C3C"/>
<rect x="169" y="285" width="7" height="24" fill="#DD3C3C"/>
<rect x="179" y="265" width="7" height="24" fill="#DD3C3C"/>
<rect x="189" y="273" width="7" height="24" fill="#DD3C3C"/>
<rect x="199" y="256" width="7" height="24" fill="#DD3C3C"/>
<rect x="209" y="239" width="7" height="24" fill="#DD3C3C"/>
<rect x="219" y="222" width="7" height="24" fill="#DD3C3C"/>
<rect x="249" y="227" width="7" height="34" fill="#DD3C3C"/>
<rect x="259" y="252" width="7" height="34" fill="#DD3C3C"/>
<rect x="269" y="226" width="7" height="34" fill="#DD3C3C"/>
<rect x="279" y="256" width="7" height="34" fill="#DD3C3C"/>
<rect x="289" y="267" width="7" height="34" fill="#DD3C3C"/>
<rect x="299" y="270" width="7" height="23" fill="#DD3C3C"/>
<rect x="309" y="287" width="7" height="23" fill="#DD3C3C"/>
<rect x="229" y="202" width="7" height="24" fill="#DD3C3C"/>
<rect x="239" y="187" width="7" height="62" fill="#DD3C3C"/>
<rect x="334" y="219.142" width="20" height="20" rx="3" transform="rotate(-45 334 219.142)" fill="#DD3C3C"/>
<rect x="195" y="154.142" width="15" height="15" rx="2" transform="rotate(-45 195 154.142)" fill="#DD3C3C"/>
<rect x="395" y="285.071" width="10" height="10" rx="1" transform="rotate(-45 395 285.071)" fill="#DD3C3C"/>
<rect x="111" y="262.536" width="5" height="5" rx="1" transform="rotate(-45 111 262.536)" fill="#DD3C3C"/>
<rect x="166" y="74.0713" width="10" height="10" rx="1" transform="rotate(-45 166 74.0713)" fill="#DD3C3C"/>
</g>
<defs>
<filter id="filter0_d_553_678" x="187" y="11.5469" width="107.971" height="116.906" filterUnits="userSpaceOnUse" color-interpolation-filters="sRGB">
<feFlood flood-opacity="0" result="BackgroundImageFix"/>
<feColorMatrix in="SourceAlpha" type="matrix" values="0 0 0 0 0 0 0 0 0 0 0 0 0 0 0 0 0 0 127 0" result="hardAlpha"/>
<feOffset/>
<feGaussianBlur stdDeviation="7.5"/>
<feComposite in2="hardAlpha" operator="out"/>
<feColorMatrix type="matrix" values="0 0 0 0 1 0 0 0 0 1 0 0 0 0 1 0 0 0 0.25 0"/>
<feBlend mode="normal" in2="BackgroundImageFix" result="effect1_dropShadow_553_678"/>
<feBlend mode="normal" in="SourceGraphic" in2="effect1_dropShadow_553_678" result="shape"/>
</filter>
<filter id="filter1_iiiii_553_678" x="202.029" y="26.5469" width="77.9414" height="86.9062" filterUnits="userSpaceOnUse" color-interpolation-filters="sRGB">
<feFlood flood-opacity="0" result="BackgroundImageFix"/>
<feBlend mode="normal" in="SourceGraphic" in2="BackgroundImageFix" result="shape"/>
<feColorMatrix in="SourceAlpha" type="matrix" values="0 0 0 0 0 0 0 0 0 0 0 0 0 0 0 0 0 0 127 0" result="hardAlpha"/>
<feOffset dy="8"/>
<feComposite in2="hardAlpha" operator="arithmetic" k2="-1" k3="1"/>
<feColorMatrix type="matrix" values="0 0 0 0 0 0 0 0 0 0 0 0 0 0 0 0 0 0 0.1 0"/>
<feBlend mode="normal" in2="shape" result="effect1_innerShadow_553_678"/>
<feColorMatrix in="SourceAlpha" type="matrix" values="0 0 0 0 0 0 0 0 0 0 0 0 0 0 0 0 0 0 127 0" result="hardAlpha"/>
<feOffset dy="16"/>
<feComposite in2="hardAlpha" operator="arithmetic" k2="-1" k3="1"/>
<feColorMatrix type="matrix" values="0 0 0 0 0 0 0 0 0 0 0 0 0 0 0 0 0 0 0.1 0"/>
<feBlend mode="normal" in2="effect1_innerShadow_553_678" result="effect2_innerShadow_553_678"/>
<feColorMatrix in="SourceAlpha" type="matrix" values="0 0 0 0 0 0 0 0 0 0 0 0 0 0 0 0 0 0 127 0" result="hardAlpha"/>
<feOffset dy="24"/>
<feComposite in2="hardAlpha" operator="arithmetic" k2="-1" k3="1"/>
<feColorMatrix type="matrix" values="0 0 0 0 0 0 0 0 0 0 0 0 0 0 0 0 0 0 0.1 0"/>
<feBlend mode="normal" in2="effect2_innerShadow_553_678" result="effect3_innerShadow_553_678"/>
<feColorMatrix in="SourceAlpha" type="matrix" values="0 0 0 0 0 0 0 0 0 0 0 0 0 0 0 0 0 0 127 0" result="hardAlpha"/>
<feOffset dy="32"/>
<feComposite in2="hardAlpha" operator="arithmetic" k2="-1" k3="1"/>
<feColorMatrix type="matrix" values="0 0 0 0 0 0 0 0 0 0 0 0 0 0 0 0 0 0 0.1 0"/>
<feBlend mode="normal" in2="effect3_innerShadow_553_678" result="effect4_innerShadow_553_678"/>
<feColorMatrix in="SourceAlpha" type="matrix" values="0 0 0 0 0 0 0 0 0 0 0 0 0 0 0 0 0 0 127 0" result="hardAlpha"/>
<feOffset dy="40"/>
<feComposite in2="hardAlpha" operator="arithmetic" k2="-1" k3="1"/>
<feColorMatrix type="matrix" values="0 0 0 0 0 0 0 0 0 0 0 0 0 0 0 0 0 0 0.1 0"/>
<feBlend mode="normal" in2="effect4_innerShadow_553_678" result="effect5_innerShadow_553_678"/>
</filter>
<filter id="filter2_d_553_678" x="313" y="76.5469" width="107.971" height="116.906" filterUnits="userSpaceOnUse" color-interpolation-filters="sRGB">
<feFlood flood-opacity="0" result="BackgroundImageFix"/>
<feColorMatrix in="SourceAlpha" type="matrix" values="0 0 0 0 0 0 0 0 0 0 0 0 0 0 0 0 0 0 127 0" result="hardAlpha"/>
<feOffset/>
<feGaussianBlur stdDeviation="7.5"/>
<feComposite in2="hardAlpha" operator="out"/>
<feColorMatrix type="matrix" values="0 0 0 0 1 0 0 0 0 1 0 0 0 0 1 0 0 0 0.25 0"/>
<feBlend mode="normal" in2="BackgroundImageFix" result="effect1_dropShadow_553_678"/>
<feBlend mode="normal" in="SourceGraphic" in2="effect1_dropShadow_553_678" result="shape"/>
</filter>
<filter id="filter3_iiiii_553_678" x="328.029" y="91.5469" width="77.9414" height="86.9062" filterUnits="userSpaceOnUse" color-interpolation-filters="sRGB">
<feFlood flood-opacity="0" result="BackgroundImageFix"/>
<feBlend mode="normal" in="SourceGraphic" in2="BackgroundImageFix" result="shape"/>
<feColorMatrix in="SourceAlpha" type="matrix" values="0 0 0 0 0 0 0 0 0 0 0 0 0 0 0 0 0 0 127 0" result="hardAlpha"/>
<feOffset dy="8"/>
<feComposite in2="hardAlpha" operator="arithmetic" k2="-1" k3="1"/>
<feColorMatrix type="matrix" values="0 0 0 0 0 0 0 0 0 0 0 0 0 0 0 0 0 0 0.1 0"/>
<feBlend mode="normal" in2="shape" result="effect1_innerShadow_553_678"/>
<feColorMatrix in="SourceAlpha" type="matrix" values="0 0 0 0 0 0 0 0 0 0 0 0 0 0 0 0 0 0 127 0" result="hardAlpha"/>
<feOffset dy="16"/>
<feComposite in2="hardAlpha" operator="arithmetic" k2="-1" k3="1"/>
<feColorMatrix type="matrix" values="0 0 0 0 0 0 0 0 0 0 0 0 0 0 0 0 0 0 0.1 0"/>
<feBlend mode="normal" in2="effect1_innerShadow_553_678" result="effect2_innerShadow_553_678"/>
<feColorMatrix in="SourceAlpha" type="matrix" values="0 0 0 0 0 0 0 0 0 0 0 0 0 0 0 0 0 0 127 0" result="hardAlpha"/>
<feOffset dy="24"/>
<feComposite in2="hardAlpha" operator="arithmetic" k2="-1" k3="1"/>
<feColorMatrix type="matrix" values="0 0 0 0 0 0 0 0 0 0 0 0 0 0 0 0 0 0 0.1 0"/>
<feBlend mode="normal" in2="effect2_innerShadow_553_678" result="effect3_innerShadow_553_678"/>
<feColorMatrix in="SourceAlpha" type="matrix" values="0 0 0 0 0 0 0 0 0 0 0 0 0 0 0 0 0 0 127 0" result="hardAlpha"/>
<feOffset dy="32"/>
<feComposite in2="hardAlpha" operator="arithmetic" k2="-1" k3="1"/>
<feColorMatrix type="matrix" values="0 0 0 0 0 0 0 0 0 0 0 0 0 0 0 0 0 0 0.1 0"/>
<feBlend mode="normal" in2="effect3_innerShadow_553_678" result="effect4_innerShadow_553_678"/>
<feColorMatrix in="SourceAlpha" type="matrix" values="0 0 0 0 0 0 0 0 0 0 0 0 0 0 0 0 0 0 127 0" result="hardAlpha"/>
<feOffset dy="40"/>
<feComposite in2="hardAlpha" operator="arithmetic" k2="-1" k3="1"/>
<feColorMatrix type="matrix" values="0 0 0 0 0 0 0 0 0 0 0 0 0 0 0 0 0 0 0.1 0"/>
<feBlend mode="normal" in2="effect4_innerShadow_553_678" result="effect5_innerShadow_553_678"/>
</filter>
<filter id="filter4_d_553_678" x="386" y="188.547" width="107.971" height="116.906" filterUnits="userSpaceOnUse" color-interpolation-filters="sRGB">
<feFlood flood-opacity="0" result="BackgroundImageFix"/>
<feColorMatrix in="SourceAlpha" type="matrix" values="0 0 0 0 0 0 0 0 0 0 0 0 0 0 0 0 0 0 127 0" result="hardAlpha"/>
<feOffset/>
<feGaussianBlur stdDeviation="7.5"/>
<feComposite in2="hardAlpha" operator="out"/>
<feColorMatrix type="matrix" values="0 0 0 0 1 0 0 0 0 1 0 0 0 0 1 0 0 0 0.25 0"/>
<feBlend mode="normal" in2="BackgroundImageFix" result="effect1_dropShadow_553_678"/>
<feBlend mode="normal" in="SourceGraphic" in2="effect1_dropShadow_553_678" result="shape"/>
</filter>
<filter id="filter5_iiiii_553_678" x="401.029" y="203.547" width="77.9414" height="86.9062" filterUnits="userSpaceOnUse" color-interpolation-filters="sRGB">
<feFlood flood-opacity="0" result="BackgroundImageFix"/>
<feBlend mode="normal" in="SourceGraphic" in2="BackgroundImageFix" result="shape"/>
<feColorMatrix in="SourceAlpha" type="matrix" values="0 0 0 0 0 0 0 0 0 0 0 0 0 0 0 0 0 0 127 0" result="hardAlpha"/>
<feOffset dy="8"/>
<feComposite in2="hardAlpha" operator="arithmetic" k2="-1" k3="1"/>
<feColorMatrix type="matrix" values="0 0 0 0 0 0 0 0 0 0 0 0 0 0 0 0 0 0 0.1 0"/>
<feBlend mode="normal" in2="shape" result="effect1_innerShadow_553_678"/>
<feColorMatrix in="SourceAlpha" type="matrix" values="0 0 0 0 0 0 0 0 0 0 0 0 0 0 0 0 0 0 127 0" result="hardAlpha"/>
<feOffset dy="16"/>
<feComposite in2="hardAlpha" operator="arithmetic" k2="-1" k3="1"/>
<feColorMatrix type="matrix" values="0 0 0 0 0 0 0 0 0 0 0 0 0 0 0 0 0 0 0.1 0"/>
<feBlend mode="normal" in2="effect1_innerShadow_553_678" result="effect2_innerShadow_553_678"/>
<feColorMatrix in="SourceAlpha" type="matrix" values="0 0 0 0 0 0 0 0 0 0 0 0 0 0 0 0 0 0 127 0" result="hardAlpha"/>
<feOffset dy="24"/>
<feComposite in2="hardAlpha" operator="arithmetic" k2="-1" k3="1"/>
<feColorMatrix type="matrix" values="0 0 0 0 0 0 0 0 0 0 0 0 0 0 0 0 0 0 0.1 0"/>
<feBlend mode="normal" in2="effect2_innerShadow_553_678" result="effect3_innerShadow_553_678"/>
<feColorMatrix in="SourceAlpha" type="matrix" values="0 0 0 0 0 0 0 0 0 0 0 0 0 0 0 0 0 0 127 0" result="hardAlpha"/>
<feOffset dy="32"/>
<feComposite in2="hardAlpha" operator="arithmetic" k2="-1" k3="1"/>
<feColorMatrix type="matrix" values="0 0 0 0 0 0 0 0 0 0 0 0 0 0 0 0 0 0 0.1 0"/>
<feBlend mode="normal" in2="effect3_innerShadow_553_678" result="effect4_innerShadow_553_678"/>
<feColorMatrix in="SourceAlpha" type="matrix" values="0 0 0 0 0 0 0 0 0 0 0 0 0 0 0 0 0 0 127 0" result="hardAlpha"/>
<feOffset dy="40"/>
<feComposite in2="hardAlpha" operator="arithmetic" k2="-1" k3="1"/>
<feColorMatrix type="matrix" values="0 0 0 0 0 0 0 0 0 0 0 0 0 0 0 0 0 0 0.1 0"/>
<feBlend mode="normal" in2="effect4_innerShadow_553_678" result="effect5_innerShadow_553_678"/>
</filter>
<filter id="filter6_d_553_678" x="61" y="76.5469" width="107.971" height="116.906" filterUnits="userSpaceOnUse" color-interpolation-filters="sRGB">
<feFlood flood-opacity="0" result="BackgroundImageFix"/>
<feColorMatrix in="SourceAlpha" type="matrix" values="0 0 0 0 0 0 0 0 0 0 0 0 0 0 0 0 0 0 127 0" result="hardAlpha"/>
<feOffset/>
<feGaussianBlur stdDeviation="7.5"/>
<feComposite in2="hardAlpha" operator="out"/>
<feColorMatrix type="matrix" values="0 0 0 0 1 0 0 0 0 1 0 0 0 0 1 0 0 0 0.25 0"/>
<feBlend mode="normal" in2="BackgroundImageFix" result="effect1_dropShadow_553_678"/>
<feBlend mode="normal" in="SourceGraphic" in2="effect1_dropShadow_553_678" result="shape"/>
</filter>
<filter id="filter7_iiiii_553_678" x="76.0293" y="91.5469" width="77.9414" height="86.9062" filterUnits="userSpaceOnUse" color-interpolation-filters="sRGB">
<feFlood flood-opacity="0" result="BackgroundImageFix"/>
<feBlend mode="normal" in="SourceGraphic" in2="BackgroundImageFix" result="shape"/>
<feColorMatrix in="SourceAlpha" type="matrix" values="0 0 0 0 0 0 0 0 0 0 0 0 0 0 0 0 0 0 127 0" result="hardAlpha"/>
<feOffset dy="8"/>
<feComposite in2="hardAlpha" operator="arithmetic" k2="-1" k3="1"/>
<feColorMatrix type="matrix" values="0 0 0 0 0 0 0 0 0 0 0 0 0 0 0 0 0 0 0.1 0"/>
<feBlend mode="normal" in2="shape" result="effect1_innerShadow_553_678"/>
<feColorMatrix in="SourceAlpha" type="matrix" values="0 0 0 0 0 0 0 0 0 0 0 0 0 0 0 0 0 0 127 0" result="hardAlpha"/>
<feOffset dy="16"/>
<feComposite in2="hardAlpha" operator="arithmetic" k2="-1" k3="1"/>
<feColorMatrix type="matrix" values="0 0 0 0 0 0 0 0 0 0 0 0 0 0 0 0 0 0 0.1 0"/>
<feBlend mode="normal" in2="effect1_innerShadow_553_678" result="effect2_innerShadow_553_678"/>
<feColorMatrix in="SourceAlpha" type="matrix" values="0 0 0 0 0 0 0 0 0 0 0 0 0 0 0 0 0 0 127 0" result="hardAlpha"/>
<feOffset dy="24"/>
<feComposite in2="hardAlpha" operator="arithmetic" k2="-1" k3="1"/>
<feColorMatrix type="matrix" values="0 0 0 0 0 0 0 0 0 0 0 0 0 0 0 0 0 0 0.1 0"/>
<feBlend mode="normal" in2="effect2_innerShadow_553_678" result="effect3_innerShadow_553_678"/>
<feColorMatrix in="SourceAlpha" type="matrix" values="0 0 0 0 0 0 0 0 0 0 0 0 0 0 0 0 0 0 127 0" result="hardAlpha"/>
<feOffset dy="32"/>
<feComposite in2="hardAlpha" operator="arithmetic" k2="-1" k3="1"/>
<feColorMatrix type="matrix" values="0 0 0 0 0 0 0 0 0 0 0 0 0 0 0 0 0 0 0.1 0"/>
<feBlend mode="normal" in2="effect3_innerShadow_553_678" result="effect4_innerShadow_553_678"/>
<feColorMatrix in="SourceAlpha" type="matrix" values="0 0 0 0 0 0 0 0 0 0 0 0 0 0 0 0 0 0 127 0" result="hardAlpha"/>
<feOffset dy="40"/>
<feComposite in2="hardAlpha" operator="arithmetic" k2="-1" k3="1"/>
<feColorMatrix type="matrix" values="0 0 0 0 0 0 0 0 0 0 0 0 0 0 0 0 0 0 0.1 0"/>
<feBlend mode="normal" in2="effect4_innerShadow_553_678" result="effect5_innerShadow_553_678"/>
</filter>
<filter id="filter8_d_553_678" x="-9" y="187.547" width="107.971" height="116.906" filterUnits="userSpaceOnUse" color-interpolation-filters="sRGB">
<feFlood flood-opacity="0" result="BackgroundImageFix"/>
<feColorMatrix in="SourceAlpha" type="matrix" values="0 0 0 0 0 0 0 0 0 0 0 0 0 0 0 0 0 0 127 0" result="hardAlpha"/>
<feOffset/>
<feGaussianBlur stdDeviation="7.5"/>
<feComposite in2="hardAlpha" operator="out"/>
<feColorMatrix type="matrix" values="0 0 0 0 1 0 0 0 0 1 0 0 0 0 1 0 0 0 0.25 0"/>
<feBlend mode="normal" in2="BackgroundImageFix" result="effect1_dropShadow_553_678"/>
<feBlend mode="normal" in="SourceGraphic" in2="effect1_dropShadow_553_678" result="shape"/>
</filter>
<filter id="filter9_iiiii_553_678" x="6.0293" y="202.547" width="77.9414" height="86.9062" filterUnits="userSpaceOnUse" color-interpolation-filters="sRGB">
<feFlood flood-opacity="0" result="BackgroundImageFix"/>
<feBlend mode="normal" in="SourceGraphic" in2="BackgroundImageFix" result="shape"/>
<feColorMatrix in="SourceAlpha" type="matrix" values="0 0 0 0 0 0 0 0 0 0 0 0 0 0 0 0 0 0 127 0" result="hardAlpha"/>
<feOffset dy="8"/>
<feComposite in2="hardAlpha" operator="arithmetic" k2="-1" k3="1"/>
<feColorMatrix type="matrix" values="0 0 0 0 0 0 0 0 0 0 0 0 0 0 0 0 0 0 0.1 0"/>
<feBlend mode="normal" in2="shape" result="effect1_innerShadow_553_678"/>
<feColorMatrix in="SourceAlpha" type="matrix" values="0 0 0 0 0 0 0 0 0 0 0 0 0 0 0 0 0 0 127 0" result="hardAlpha"/>
<feOffset dy="16"/>
<feComposite in2="hardAlpha" operator="arithmetic" k2="-1" k3="1"/>
<feColorMatrix type="matrix" values="0 0 0 0 0 0 0 0 0 0 0 0 0 0 0 0 0 0 0.1 0"/>
<feBlend mode="normal" in2="effect1_innerShadow_553_678" result="effect2_innerShadow_553_678"/>
<feColorMatrix in="SourceAlpha" type="matrix" values="0 0 0 0 0 0 0 0 0 0 0 0 0 0 0 0 0 0 127 0" result="hardAlpha"/>
<feOffset dy="24"/>
<feComposite in2="hardAlpha" operator="arithmetic" k2="-1" k3="1"/>
<feColorMatrix type="matrix" values="0 0 0 0 0 0 0 0 0 0 0 0 0 0 0 0 0 0 0.1 0"/>
<feBlend mode="normal" in2="effect2_innerShadow_553_678" result="effect3_innerShadow_553_678"/>
<feColorMatrix in="SourceAlpha" type="matrix" values="0 0 0 0 0 0 0 0 0 0 0 0 0 0 0 0 0 0 127 0" result="hardAlpha"/>
<feOffset dy="32"/>
<feComposite in2="hardAlpha" operator="arithmetic" k2="-1" k3="1"/>
<feColorMatrix type="matrix" values="0 0 0 0 0 0 0 0 0 0 0 0 0 0 0 0 0 0 0.1 0"/>
<feBlend mode="normal" in2="effect3_innerShadow_553_678" result="effect4_innerShadow_553_678"/>
<feColorMatrix in="SourceAlpha" type="matrix" values="0 0 0 0 0 0 0 0 0 0 0 0 0 0 0 0 0 0 127 0" result="hardAlpha"/>
<feOffset dy="40"/>
<feComposite in2="hardAlpha" operator="arithmetic" k2="-1" k3="1"/>
<feColorMatrix type="matrix" values="0 0 0 0 0 0 0 0 0 0 0 0 0 0 0 0 0 0 0.1 0"/>
<feBlend mode="normal" in2="effect4_innerShadow_553_678" result="effect5_innerShadow_553_678"/>
</filter>
<clipPath id="clip0_553_678">
<rect width="485" height="320.032" fill="white"/>
</clipPath>
</defs>
</svg>
