<svg width="30" height="30" viewBox="0 0 30 30" fill="none" xmlns="http://www.w3.org/2000/svg">
<path fill-rule="evenodd" clip-rule="evenodd" d="M16.3142 0.544339C15.5884 -0.181446 14.4116 -0.181446 13.6858 0.544339L0.544338 13.6859C-0.181446 14.4117 -0.181446 15.5884 0.544338 16.3141L13.6858 29.4556C14.4116 30.1815 15.5884 30.1815 16.3142 29.4556L29.4556 16.3141C30.1814 15.5884 30.1814 14.4117 29.4556 13.6859L16.3142 0.544339ZM14.0435 8.52267C14.0435 8.18052 13.7662 7.90317 13.424 7.90317H11.5655C11.2234 7.90317 10.946 8.18052 10.946 8.52267V20.9126C10.946 21.2547 11.2234 21.5321 11.5655 21.5321H13.424C13.7662 21.5321 14.0435 21.2547 14.0435 20.9126V8.52267Z" fill="#DD3C3C"/>
<g filter="url(#filter0_d_540_30)">
<path d="M16.6014 21.4542C16.6014 24.4365 19.019 26.8542 22.0014 26.8542C24.9837 26.8542 27.4014 24.4365 27.4014 21.4542C27.4014 18.4719 24.9837 16.0542 22.0014 16.0542C19.019 16.0542 16.6014 18.4719 16.6014 21.4542Z" fill="#F1F1F1"/>
<path d="M16.9016 21.454C16.9016 24.2707 19.1849 26.554 22.0016 26.554C24.8182 26.554 27.1016 24.2707 27.1016 21.454C27.1016 18.6374 24.8182 16.354 22.0016 16.354C19.1849 16.354 16.9016 18.6374 16.9016 21.454Z" stroke="#C4C4C4"/>
</g>
<defs>
<filter id="filter0_d_540_30" x="14.4014" y="11.854" width="15.2002" height="15.2002" filterUnits="userSpaceOnUse" color-interpolation-filters="sRGB">
<feFlood flood-opacity="0" result="BackgroundImageFix"/>
<feColorMatrix in="SourceAlpha" type="matrix" values="0 0 0 0 0 0 0 0 0 0 0 0 0 0 0 0 0 0 127 0" result="hardAlpha"/>
<feOffset dy="-2"/>
<feGaussianBlur stdDeviation="1"/>
<feColorMatrix type="matrix" values="0 0 0 0 0 0 0 0 0 0 0 0 0 0 0 0 0 0 0.25 0"/>
<feBlend mode="normal" in2="BackgroundImageFix" result="effect1_dropShadow_540_30"/>
<feBlend mode="normal" in="SourceGraphic" in2="effect1_dropShadow_540_30" result="shape"/>
</filter>
</defs>
</svg>
