<svg width="200" height="200" viewBox="0 0 200 200" fill="none" xmlns="http://www.w3.org/2000/svg">
<g clip-path="url(#clip0_599_701)">
<path d="M5.31371 111.315C-0.934678 105.066 -0.93468 94.9357 5.31371 88.6873L88.7523 5.24867C95.0007 -0.999717 105.131 -0.999719 111.38 5.24867L194.818 88.6873C201.067 94.9357 201.067 105.066 194.818 111.315L111.38 194.753C105.131 201.002 95.0007 201.002 88.7523 194.753L5.31371 111.315Z" fill="#111111"/>
<path d="M46.5003 101L46.5001 125.001L139 125L139 70.0003" stroke="white" stroke-linecap="round" stroke-dasharray="6 6"/>
<rect x="6" y="31" width="73" height="72" rx="4" fill="#EDEDED"/>
<rect x="13" y="37" width="11" height="4" fill="#C4C4C4"/>
<rect x="40" y="37" width="31" height="4" fill="#C4C4C4"/>
<rect x="13" y="48" width="33" height="22" fill="#C4C4C4"/>
<rect x="13" y="76" width="12" height="12" fill="#C4C4C4"/>
<rect x="13" y="94" width="58" height="5" fill="#C4C4C4"/>
<rect x="50" y="48" width="21" height="3" fill="#C4C4C4"/>
<rect x="50" y="52" width="6" height="2" fill="#C4C4C4"/>
<rect x="50" y="61" width="11" height="2" fill="#C4C4C4"/>
<rect x="50" y="65" width="11" height="5" fill="#C4C4C4"/>
<rect x="58" y="52" width="13" height="2" fill="#C4C4C4"/>
<rect x="50" y="55" width="12" height="2" fill="#C4C4C4"/>
<rect x="50" y="58" width="21" height="2" fill="#C4C4C4"/>
<rect x="63" y="61" width="8" height="2" fill="#C4C4C4"/>
<rect x="28" y="76" width="12" height="12" fill="#C4C4C4"/>
<rect x="44" y="76" width="12" height="12" fill="#C4C4C4"/>
<rect x="59" y="76" width="12" height="12" fill="#C4C4C4"/>
<g filter="url(#filter0_d_599_701)">
<rect x="106.5" y="5.5" width="72" height="71" rx="3.5" fill="#DD3C3C" stroke="black"/>
<rect x="113" y="11" width="11" height="4" rx="1" fill="white" fill-opacity="0.25"/>
<rect x="140" y="11" width="31" height="4" rx="1" fill="white" fill-opacity="0.25"/>
<rect x="113" y="24" width="27" height="18" rx="1" fill="white" fill-opacity="0.25"/>
<rect x="113" y="50" width="12" height="12" rx="2" fill="white" fill-opacity="0.25"/>
<rect x="113" y="68" width="58" height="5" rx="1" fill="white" fill-opacity="0.25"/>
<rect x="144" y="22" width="27" height="3" rx="1" fill="white" fill-opacity="0.25"/>
<rect x="144" y="26" width="8" height="2" rx="1" fill="white" fill-opacity="0.25"/>
<rect x="144" y="35" width="14" height="2" rx="1" fill="white" fill-opacity="0.25"/>
<rect x="144" y="39" width="14" height="5" rx="1" fill="white" fill-opacity="0.25"/>
<rect x="158" y="26" width="13" height="2" rx="1" fill="white" fill-opacity="0.25"/>
<rect x="144" y="29" width="15" height="2" rx="1" fill="white" fill-opacity="0.25"/>
<rect x="144" y="32" width="27" height="2" rx="1" fill="white" fill-opacity="0.25"/>
<rect x="163" y="35" width="8" height="2" rx="1" fill="white" fill-opacity="0.25"/>
<rect x="128" y="50" width="12" height="12" rx="2" fill="white" fill-opacity="0.25"/>
<rect x="144" y="50" width="12" height="12" rx="2" fill="white" fill-opacity="0.25"/>
<rect x="159" y="50" width="12" height="12" rx="2" fill="white" fill-opacity="0.25"/>
<rect x="130" y="57" width="8" height="3" rx="1" fill="white" fill-opacity="0.5"/>
<rect x="115" y="57" width="8" height="3" rx="1" fill="white" fill-opacity="0.5"/>
<rect x="146" y="57" width="8" height="3" rx="1" fill="white" fill-opacity="0.5"/>
<rect x="161" y="57" width="8" height="3" rx="1" fill="white" fill-opacity="0.5"/>
<rect x="116" y="69" width="19" height="3" rx="1" fill="white" fill-opacity="0.5"/>
<rect x="137" y="69" width="9" height="3" rx="1" fill="white" fill-opacity="0.5"/>
<rect x="148" y="69" width="9" height="3" rx="1" fill="white" fill-opacity="0.5"/>
<rect x="159" y="69" width="9" height="3" rx="1" fill="white" fill-opacity="0.5"/>
</g>
<g filter="url(#filter1_d_599_701)">
<rect x="89" y="87" width="95" height="96" rx="3" fill="white" stroke="#111111" stroke-width="2"/>
<rect x="97.3013" y="94.167" width="14.6164" height="5.44444" rx="1" fill="#222222"/>
<rect x="133.178" y="94.167" width="41.1918" height="5.44444" rx="1" fill="#222222"/>
<rect x="97.3013" y="111.861" width="35.8767" height="24.5" rx="1" fill="#222222"/>
<rect x="97.3013" y="147.25" width="15.9452" height="16.3333" rx="2" fill="#222222"/>
<rect x="97.3013" y="171.75" width="77.0685" height="6.80556" rx="1" fill="#222222"/>
<rect x="138.493" y="109.139" width="35.8767" height="4.08333" rx="1" fill="#222222"/>
<rect x="138.493" y="114.583" width="10.6301" height="2.72222" rx="1" fill="#222222"/>
<rect x="138.493" y="126.833" width="18.6027" height="2.72222" rx="1" fill="#222222"/>
<rect x="138.493" y="132.277" width="18.6027" height="6.80556" rx="1" fill="#222222"/>
<rect x="157.096" y="114.583" width="17.274" height="2.72222" rx="1" fill="#222222"/>
<rect x="138.493" y="118.667" width="19.9315" height="2.72222" rx="1" fill="#222222"/>
<rect x="138.493" y="122.75" width="35.8767" height="2.72222" rx="1" fill="#222222"/>
<rect x="163.74" y="126.833" width="10.6301" height="2.72222" rx="1" fill="#222222"/>
<rect x="117.233" y="147.25" width="15.9452" height="16.3333" rx="2" fill="#222222"/>
<rect x="138.493" y="147.25" width="15.9452" height="16.3333" rx="2" fill="#222222"/>
<rect x="158.425" y="147.25" width="15.9452" height="16.3333" rx="2" fill="#222222"/>
<rect x="119.891" y="156.777" width="10.6301" height="4.08333" rx="1" fill="#DD3C3C"/>
<rect x="99.959" y="156.777" width="10.6301" height="4.08333" rx="1" fill="#DD3C3C"/>
<rect x="141.151" y="156.777" width="10.6301" height="4.08333" rx="1" fill="#DD3C3C"/>
<rect x="161.082" y="156.777" width="10.6301" height="4.08333" rx="1" fill="#DD3C3C"/>
<rect x="101.288" y="173.111" width="25.2466" height="4.08333" rx="1" fill="#DD3C3C"/>
<rect x="129.192" y="173.111" width="11.9589" height="4.08333" rx="1" fill="#DD3C3C"/>
<rect x="143.808" y="173.111" width="11.9589" height="4.08333" rx="1" fill="#DD3C3C"/>
<rect x="158.425" y="173.111" width="11.9589" height="4.08333" rx="1" fill="#DD3C3C"/>
<path d="M124.67 125.409L130.871 134.839C131.287 135.471 130.833 136.311 130.077 136.311H117.676C116.92 136.311 116.467 135.471 116.882 134.839L123.083 125.409C123.458 124.839 124.295 124.839 124.67 125.409Z" fill="#DD3C3C" stroke="#222222" stroke-width="0.1"/>
<path d="M110.732 120.067L119.869 134.827C120.261 135.46 119.806 136.277 119.062 136.277H100.788C100.043 136.277 99.588 135.46 99.9798 134.827L109.117 120.067C109.488 119.467 110.361 119.467 110.732 120.067Z" fill="#DD3C3C" stroke="#222222" stroke-width="0.1"/>
<ellipse cx="119.226" cy="116.625" rx="3.32192" ry="3.40278" fill="#DD3C3C"/>
</g>
<circle cx="81.5" cy="64" r="2" stroke="white"/>
<path d="M83.5 64H105.5" stroke="white" stroke-linecap="round"/>
<path d="M101.5 60L105.5 64L101.5 68" stroke="white" stroke-linecap="round"/>
</g>
<defs>
<filter id="filter0_d_599_701" x="96" y="-5" width="93" height="92" filterUnits="userSpaceOnUse" color-interpolation-filters="sRGB">
<feFlood flood-opacity="0" result="BackgroundImageFix"/>
<feColorMatrix in="SourceAlpha" type="matrix" values="0 0 0 0 0 0 0 0 0 0 0 0 0 0 0 0 0 0 127 0" result="hardAlpha"/>
<feOffset/>
<feGaussianBlur stdDeviation="5"/>
<feComposite in2="hardAlpha" operator="out"/>
<feColorMatrix type="matrix" values="0 0 0 0 0 0 0 0 0 0 0 0 0 0 0 0 0 0 0.25 0"/>
<feBlend mode="normal" in2="BackgroundImageFix" result="effect1_dropShadow_599_701"/>
<feBlend mode="normal" in="SourceGraphic" in2="effect1_dropShadow_599_701" result="shape"/>
</filter>
<filter id="filter1_d_599_701" x="78" y="72" width="117" height="118" filterUnits="userSpaceOnUse" color-interpolation-filters="sRGB">
<feFlood flood-opacity="0" result="BackgroundImageFix"/>
<feColorMatrix in="SourceAlpha" type="matrix" values="0 0 0 0 0 0 0 0 0 0 0 0 0 0 0 0 0 0 127 0" result="hardAlpha"/>
<feOffset dy="-4"/>
<feGaussianBlur stdDeviation="5"/>
<feComposite in2="hardAlpha" operator="out"/>
<feColorMatrix type="matrix" values="0 0 0 0 0 0 0 0 0 0 0 0 0 0 0 0 0 0 0.25 0"/>
<feBlend mode="normal" in2="BackgroundImageFix" result="effect1_dropShadow_599_701"/>
<feBlend mode="normal" in="SourceGraphic" in2="effect1_dropShadow_599_701" result="shape"/>
</filter>
<clipPath id="clip0_599_701">
<rect width="200" height="200" fill="white"/>
</clipPath>
</defs>
</svg>
