<svg width="200" height="200" viewBox="0 0 200 200" fill="none" xmlns="http://www.w3.org/2000/svg">
<g clip-path="url(#clip0_598_602)">
<path d="M5.31371 111.315C-0.934678 105.066 -0.93468 94.9357 5.31371 88.6873L88.7523 5.24867C95.0007 -0.999717 105.131 -0.999719 111.38 5.24867L194.818 88.6873C201.067 94.9357 201.067 105.066 194.818 111.315L111.38 194.753C105.131 201.002 95.0007 201.002 88.7523 194.753L5.31371 111.315Z" fill="#111111"/>
<path d="M59 94.5V66.5C81.9971 66.5005 81.9971 54.0008 103 54C124.003 53.9992 123 66.5 146.5 66.5V94.5C144 124.5 103 146.5 103 146.5C103 146.5 62.5 129.5 59 94.5Z" fill="#F1F1F1" stroke="black"/>
<path d="M81.4213 97.0545L92.6755 110.81C94.5655 113.12 98.0455 113.271 100.128 111.132L127.519 82.9997" stroke="#111111" stroke-width="8" stroke-linecap="round"/>
<g filter="url(#filter0_d_598_602)">
<rect x="115" y="7" width="79" height="130" rx="5" fill="#DD3C3C"/>
<rect x="117" y="9" width="75" height="126" rx="3" stroke="black" stroke-width="4"/>
</g>
<circle cx="155" cy="117" r="9" fill="white" fill-opacity="0.25"/>
<rect x="132" y="22" width="45" height="6" rx="3" fill="white" fill-opacity="0.25"/>
<rect x="132" y="58" width="45" height="6" rx="3" fill="white" fill-opacity="0.25"/>
<rect x="148" y="46" width="29" height="6" rx="3" fill="white" fill-opacity="0.25"/>
<rect x="132" y="34" width="25" height="6" rx="3" fill="white" fill-opacity="0.25"/>
<rect x="160" y="34" width="17" height="6" rx="3" fill="white" fill-opacity="0.25"/>
</g>
<defs>
<filter id="filter0_d_598_602" x="101" y="7" width="93" height="144" filterUnits="userSpaceOnUse" color-interpolation-filters="sRGB">
<feFlood flood-opacity="0" result="BackgroundImageFix"/>
<feColorMatrix in="SourceAlpha" type="matrix" values="0 0 0 0 0 0 0 0 0 0 0 0 0 0 0 0 0 0 127 0" result="hardAlpha"/>
<feOffset dx="-10" dy="10"/>
<feGaussianBlur stdDeviation="2"/>
<feComposite in2="hardAlpha" operator="out"/>
<feColorMatrix type="matrix" values="0 0 0 0 0 0 0 0 0 0 0 0 0 0 0 0 0 0 0.25 0"/>
<feBlend mode="normal" in2="BackgroundImageFix" result="effect1_dropShadow_598_602"/>
<feBlend mode="normal" in="SourceGraphic" in2="effect1_dropShadow_598_602" result="shape"/>
</filter>
<clipPath id="clip0_598_602">
<rect width="200" height="200" fill="white"/>
</clipPath>
</defs>
</svg>
